<mxfile host="Electron" modified="2024-04-27T14:11:36.222Z" agent="Mozilla/5.0 (Windows NT 10.0; Win64; x64) AppleWebKit/537.36 (KHTML, like Gecko) draw.io/21.6.8 Chrome/114.0.5735.289 Electron/25.5.0 Safari/537.36" etag="Fye5fn18jMIv39Va8qGE" version="21.6.8" type="device" pages="3">
  <diagram name="Changes" id="x0IaxMAw3yFobh-5gMdI">
    <mxGraphModel dx="2044" dy="1174" grid="1" gridSize="10" guides="1" tooltips="1" connect="1" arrows="1" fold="1" page="1" pageScale="1" pageWidth="827" pageHeight="1169" math="0" shadow="0">
      <root>
        <mxCell id="4BgEIeD1f_NGdpKdZZ3Z-0" />
        <mxCell id="4BgEIeD1f_NGdpKdZZ3Z-1" parent="4BgEIeD1f_NGdpKdZZ3Z-0" />
        <mxCell id="4BgEIeD1f_NGdpKdZZ3Z-3" value="" style="rounded=0;whiteSpace=wrap;html=1;glass=0;sketch=0;fillStyle=auto;sketchStyle=rough;fontSize=20;strokeColor=#000000;strokeWidth=1;fillColor=#FFFFFF;gradientColor=none;gradientDirection=north;container=0;" parent="4BgEIeD1f_NGdpKdZZ3Z-1" vertex="1">
          <mxGeometry x="40" y="40" width="600" height="520" as="geometry" />
        </mxCell>
        <mxCell id="j1eDLBm9WjqF5u_fMkUV-0" value="" style="endArrow=none;html=1;rounded=0;fontSize=20;startSize=5;endSize=14;targetPerimeterSpacing=0;strokeWidth=2;jumpStyle=none;jumpSize=6;fontStyle=0;fontFamily=Verdana;endFill=0;labelBackgroundColor=none;spacingLeft=0;spacing=2;labelPosition=center;verticalLabelPosition=middle;align=center;verticalAlign=middle;" parent="4BgEIeD1f_NGdpKdZZ3Z-1" edge="1">
          <mxGeometry x="0.8179" y="-16" width="50" height="50" relative="1" as="geometry">
            <mxPoint x="170" y="280" as="sourcePoint" />
            <mxPoint x="620" y="280" as="targetPoint" />
            <mxPoint as="offset" />
          </mxGeometry>
        </mxCell>
        <mxCell id="EiviXY2oGGu-MI2dENeP-49" value="" style="rounded=0;whiteSpace=wrap;html=1;glass=0;sketch=0;fillStyle=auto;sketchStyle=rough;fontSize=20;strokeColor=none;strokeWidth=1;fillColor=#EDEDED;gradientColor=none;gradientDirection=north;container=0;" parent="4BgEIeD1f_NGdpKdZZ3Z-1" vertex="1">
          <mxGeometry x="180" y="300" width="440" height="200" as="geometry" />
        </mxCell>
        <mxCell id="21uBVtK40kJrdXI3fAvM-9" value="" style="group" parent="4BgEIeD1f_NGdpKdZZ3Z-1" vertex="1" connectable="0">
          <mxGeometry x="220" y="340" width="360" height="120" as="geometry" />
        </mxCell>
        <mxCell id="EiviXY2oGGu-MI2dENeP-46" value="" style="rounded=0;whiteSpace=wrap;html=1;glass=0;sketch=0;fillStyle=auto;sketchStyle=rough;fontSize=20;strokeColor=none;strokeWidth=1;fillColor=#CCFFFF;gradientColor=none;gradientDirection=north;container=0;" parent="21uBVtK40kJrdXI3fAvM-9" vertex="1">
          <mxGeometry y="40" width="360" height="80" as="geometry" />
        </mxCell>
        <mxCell id="21uBVtK40kJrdXI3fAvM-8" value="" style="rounded=0;whiteSpace=wrap;html=1;fontSize=20;strokeWidth=1;fillColor=#A1C9C9;strokeColor=none;container=0;fillStyle=auto;" parent="21uBVtK40kJrdXI3fAvM-9" vertex="1">
          <mxGeometry x="200" width="80" height="40" as="geometry" />
        </mxCell>
        <mxCell id="8ozBk7OJPrqvotfEJ15i-3" value="" style="endArrow=none;dashed=1;html=1;strokeWidth=1;rounded=0;fontSize=20;startSize=5;endSize=5;targetPerimeterSpacing=0;jumpStyle=none;jumpSize=6;strokeColor=#808080;fontStyle=0" parent="4BgEIeD1f_NGdpKdZZ3Z-1" edge="1">
          <mxGeometry width="50" height="50" relative="1" as="geometry">
            <mxPoint x="181" y="339.99" as="sourcePoint" />
            <mxPoint x="620" y="340" as="targetPoint" />
          </mxGeometry>
        </mxCell>
        <mxCell id="8ozBk7OJPrqvotfEJ15i-2" value="" style="endArrow=none;dashed=1;html=1;strokeWidth=1;rounded=0;fontSize=20;startSize=5;endSize=5;targetPerimeterSpacing=0;jumpStyle=none;jumpSize=6;strokeColor=#808080;fontStyle=0" parent="4BgEIeD1f_NGdpKdZZ3Z-1" edge="1">
          <mxGeometry width="50" height="50" relative="1" as="geometry">
            <mxPoint x="181" y="419.99" as="sourcePoint" />
            <mxPoint x="620" y="420" as="targetPoint" />
          </mxGeometry>
        </mxCell>
        <mxCell id="8ozBk7OJPrqvotfEJ15i-1" value="" style="endArrow=none;dashed=1;html=1;strokeWidth=1;rounded=0;fontSize=20;startSize=5;endSize=5;targetPerimeterSpacing=0;jumpStyle=none;jumpSize=6;strokeColor=#808080;fontStyle=0" parent="4BgEIeD1f_NGdpKdZZ3Z-1" edge="1">
          <mxGeometry width="50" height="50" relative="1" as="geometry">
            <mxPoint x="181" y="379.99" as="sourcePoint" />
            <mxPoint x="620" y="380" as="targetPoint" />
          </mxGeometry>
        </mxCell>
        <mxCell id="4BgEIeD1f_NGdpKdZZ3Z-22" value="" style="rounded=0;whiteSpace=wrap;html=1;glass=0;sketch=0;fillStyle=auto;sketchStyle=rough;fontSize=20;strokeColor=none;strokeWidth=1;fillColor=#EDEDED;gradientColor=none;gradientDirection=north;container=0;" parent="4BgEIeD1f_NGdpKdZZ3Z-1" vertex="1">
          <mxGeometry x="180" y="60" width="440" height="200" as="geometry" />
        </mxCell>
        <mxCell id="21uBVtK40kJrdXI3fAvM-10" value="" style="group" parent="4BgEIeD1f_NGdpKdZZ3Z-1" vertex="1" connectable="0">
          <mxGeometry x="220" y="100" width="360" height="120" as="geometry" />
        </mxCell>
        <mxCell id="4BgEIeD1f_NGdpKdZZ3Z-26" value="" style="rounded=0;whiteSpace=wrap;html=1;fontSize=20;strokeWidth=1;fillColor=#A1C9C9;strokeColor=none;container=0;fillStyle=auto;" parent="21uBVtK40kJrdXI3fAvM-10" vertex="1">
          <mxGeometry x="40" width="80" height="40" as="geometry" />
        </mxCell>
        <mxCell id="EiviXY2oGGu-MI2dENeP-32" value="" style="rounded=0;whiteSpace=wrap;html=1;glass=0;sketch=0;fillStyle=auto;sketchStyle=rough;fontSize=20;strokeColor=none;strokeWidth=1;fillColor=#CCFFFF;gradientColor=none;gradientDirection=north;container=0;" parent="21uBVtK40kJrdXI3fAvM-10" vertex="1">
          <mxGeometry y="40" width="200" height="80" as="geometry" />
        </mxCell>
        <mxCell id="EiviXY2oGGu-MI2dENeP-39" value="" style="rounded=0;whiteSpace=wrap;html=1;glass=0;sketch=0;fillStyle=auto;sketchStyle=rough;fontSize=20;strokeColor=none;strokeWidth=1;fillColor=#CCFFFF;gradientColor=none;gradientDirection=north;container=0;" parent="21uBVtK40kJrdXI3fAvM-10" vertex="1">
          <mxGeometry x="200" y="80" width="80" height="40" as="geometry" />
        </mxCell>
        <mxCell id="EiviXY2oGGu-MI2dENeP-40" value="" style="rounded=0;whiteSpace=wrap;html=1;glass=0;sketch=0;fillStyle=auto;sketchStyle=rough;fontSize=20;strokeColor=none;strokeWidth=1;fillColor=#CCFFFF;gradientColor=none;gradientDirection=north;container=0;" parent="21uBVtK40kJrdXI3fAvM-10" vertex="1">
          <mxGeometry x="280" y="40" width="80" height="80" as="geometry" />
        </mxCell>
        <mxCell id="8ozBk7OJPrqvotfEJ15i-5" value="" style="endArrow=none;dashed=1;html=1;strokeWidth=1;rounded=0;fontSize=20;startSize=5;endSize=5;targetPerimeterSpacing=0;jumpStyle=none;jumpSize=6;strokeColor=#808080;fontStyle=0" parent="4BgEIeD1f_NGdpKdZZ3Z-1" edge="1">
          <mxGeometry width="50" height="50" relative="1" as="geometry">
            <mxPoint x="181" y="99.99000000000001" as="sourcePoint" />
            <mxPoint x="620" y="100" as="targetPoint" />
          </mxGeometry>
        </mxCell>
        <mxCell id="8ozBk7OJPrqvotfEJ15i-4" value="" style="endArrow=none;dashed=1;html=1;strokeWidth=1;rounded=0;fontSize=20;startSize=5;endSize=5;targetPerimeterSpacing=0;jumpStyle=none;jumpSize=6;strokeColor=#808080;fontStyle=0" parent="4BgEIeD1f_NGdpKdZZ3Z-1" edge="1">
          <mxGeometry width="50" height="50" relative="1" as="geometry">
            <mxPoint x="181" y="179.99" as="sourcePoint" />
            <mxPoint x="620" y="180" as="targetPoint" />
          </mxGeometry>
        </mxCell>
        <mxCell id="8ozBk7OJPrqvotfEJ15i-0" value="" style="endArrow=none;dashed=1;html=1;strokeWidth=1;rounded=0;fontSize=20;startSize=5;endSize=5;targetPerimeterSpacing=0;jumpStyle=none;jumpSize=6;strokeColor=#808080;fontStyle=0" parent="4BgEIeD1f_NGdpKdZZ3Z-1" edge="1">
          <mxGeometry width="50" height="50" relative="1" as="geometry">
            <mxPoint x="181" y="139.99" as="sourcePoint" />
            <mxPoint x="620" y="140" as="targetPoint" />
          </mxGeometry>
        </mxCell>
        <mxCell id="EiviXY2oGGu-MI2dENeP-43" value="" style="rounded=0;whiteSpace=wrap;html=1;fontSize=20;strokeWidth=1;fillColor=#FF6666;strokeColor=none;gradientColor=none;gradientDirection=north;sketch=1;sketchStyle=rough;fillStyle=dashed;perimeterSpacing=0;labelBackgroundColor=none;disableMultiStroke=0;disableMultiStrokeFill=0;dashOffset=10;dashGap=3;hachureGap=5;fillWeight=1;hachureAngle=-45;curveFitting=-1;simplification=1;zigzagOffset=-10;container=0;" parent="4BgEIeD1f_NGdpKdZZ3Z-1" vertex="1">
          <mxGeometry x="420" y="140" width="80" height="40" as="geometry" />
        </mxCell>
        <mxCell id="21uBVtK40kJrdXI3fAvM-0" value="" style="rounded=0;whiteSpace=wrap;html=1;fontSize=20;strokeWidth=1;fillColor=#66FF66;strokeColor=none;gradientColor=none;gradientDirection=north;sketch=1;sketchStyle=rough;fillStyle=dashed;perimeterSpacing=0;labelBackgroundColor=none;disableMultiStroke=0;disableMultiStrokeFill=0;dashOffset=10;dashGap=3;hachureGap=5;fillWeight=1;hachureAngle=-45;curveFitting=-1;simplification=1;zigzagOffset=-10;container=0;" parent="4BgEIeD1f_NGdpKdZZ3Z-1" vertex="1">
          <mxGeometry x="260" y="100" width="80" height="40" as="geometry" />
        </mxCell>
        <mxCell id="4BgEIeD1f_NGdpKdZZ3Z-6" value="" style="endArrow=block;html=1;rounded=0;fontSize=20;startSize=5;endSize=14;targetPerimeterSpacing=0;strokeWidth=2;jumpStyle=none;jumpSize=6;fontStyle=0;fontFamily=Verdana;endFill=1;labelBackgroundColor=none;spacingLeft=0;spacing=2;labelPosition=center;verticalLabelPosition=middle;align=center;verticalAlign=middle;" parent="4BgEIeD1f_NGdpKdZZ3Z-1" edge="1">
          <mxGeometry x="0.8179" y="-16" width="50" height="50" relative="1" as="geometry">
            <mxPoint x="170" y="520" as="sourcePoint" />
            <mxPoint x="620" y="520" as="targetPoint" />
            <mxPoint as="offset" />
          </mxGeometry>
        </mxCell>
        <mxCell id="4BgEIeD1f_NGdpKdZZ3Z-7" value="Time" style="text;html=1;strokeColor=none;fillColor=none;align=left;verticalAlign=top;whiteSpace=wrap;rounded=0;glass=0;sketch=0;fillStyle=auto;sketchStyle=rough;fontFamily=Verdana;fontSize=20;container=0;" parent="4BgEIeD1f_NGdpKdZZ3Z-1" vertex="1">
          <mxGeometry x="180" y="520" width="80" height="40" as="geometry" />
        </mxCell>
        <mxCell id="4BgEIeD1f_NGdpKdZZ3Z-30" value="" style="endArrow=oval;html=1;rounded=0;fontSize=20;targetPerimeterSpacing=0;strokeWidth=2;startArrow=none;startFill=0;endSize=5;startSize=5;endFill=0;" parent="4BgEIeD1f_NGdpKdZZ3Z-1" edge="1">
          <mxGeometry width="50" height="50" relative="1" as="geometry">
            <mxPoint x="180" y="460" as="sourcePoint" />
            <mxPoint x="220" y="460" as="targetPoint" />
          </mxGeometry>
        </mxCell>
        <mxCell id="4BgEIeD1f_NGdpKdZZ3Z-31" value="" style="endArrow=oval;html=1;rounded=0;fontSize=20;targetPerimeterSpacing=0;strokeWidth=2;startArrow=oval;startFill=0;endSize=5;startSize=5;jumpStyle=none;jumpSize=6;dashed=1;dashPattern=1 1;endFill=1;" parent="4BgEIeD1f_NGdpKdZZ3Z-1" edge="1">
          <mxGeometry width="50" height="50" relative="1" as="geometry">
            <mxPoint x="220" y="460" as="sourcePoint" />
            <mxPoint x="220" y="380" as="targetPoint" />
          </mxGeometry>
        </mxCell>
        <mxCell id="4BgEIeD1f_NGdpKdZZ3Z-32" value="" style="endArrow=oval;html=1;rounded=0;fontSize=20;targetPerimeterSpacing=0;strokeWidth=2;startArrow=oval;startFill=1;endSize=5;startSize=5;endFill=0;" parent="4BgEIeD1f_NGdpKdZZ3Z-1" edge="1">
          <mxGeometry width="50" height="50" relative="1" as="geometry">
            <mxPoint x="220" y="380" as="sourcePoint" />
            <mxPoint x="420" y="380" as="targetPoint" />
          </mxGeometry>
        </mxCell>
        <mxCell id="4BgEIeD1f_NGdpKdZZ3Z-37" value="" style="endArrow=oval;html=1;rounded=0;fontSize=20;targetPerimeterSpacing=0;strokeWidth=2;startArrow=oval;startFill=0;endSize=5;startSize=5;jumpStyle=none;jumpSize=6;dashed=1;dashPattern=1 1;endFill=1;" parent="4BgEIeD1f_NGdpKdZZ3Z-1" edge="1">
          <mxGeometry width="50" height="50" relative="1" as="geometry">
            <mxPoint x="500" y="340" as="sourcePoint" />
            <mxPoint x="500" y="380" as="targetPoint" />
          </mxGeometry>
        </mxCell>
        <mxCell id="4BgEIeD1f_NGdpKdZZ3Z-38" value="" style="endArrow=none;html=1;rounded=0;fontSize=20;targetPerimeterSpacing=0;strokeWidth=2;startArrow=oval;startFill=1;endSize=5;startSize=5;endFill=0;" parent="4BgEIeD1f_NGdpKdZZ3Z-1" edge="1">
          <mxGeometry width="50" height="50" relative="1" as="geometry">
            <mxPoint x="580" y="460.28999999999996" as="sourcePoint" />
            <mxPoint x="620" y="460.28999999999996" as="targetPoint" />
          </mxGeometry>
        </mxCell>
        <mxCell id="4BgEIeD1f_NGdpKdZZ3Z-40" value="Resource 2" style="text;html=1;strokeColor=none;fillColor=none;align=center;verticalAlign=bottom;whiteSpace=wrap;rounded=0;glass=0;sketch=0;fillStyle=auto;sketchStyle=rough;fontFamily=Verdana;fontSize=20;horizontal=0;container=0;" parent="4BgEIeD1f_NGdpKdZZ3Z-1" vertex="1">
          <mxGeometry x="60" y="300" width="40" height="200" as="geometry" />
        </mxCell>
        <mxCell id="EiviXY2oGGu-MI2dENeP-5" value="" style="endArrow=oval;html=1;rounded=0;fontSize=20;targetPerimeterSpacing=0;strokeWidth=2;startArrow=oval;startFill=1;endSize=5;startSize=5;endFill=0;" parent="4BgEIeD1f_NGdpKdZZ3Z-1" edge="1">
          <mxGeometry width="50" height="50" relative="1" as="geometry">
            <mxPoint x="420" y="340" as="sourcePoint" />
            <mxPoint x="500" y="340" as="targetPoint" />
          </mxGeometry>
        </mxCell>
        <mxCell id="EiviXY2oGGu-MI2dENeP-6" value="" style="endArrow=oval;html=1;rounded=0;fontSize=20;targetPerimeterSpacing=0;strokeWidth=2;startArrow=oval;startFill=1;endSize=5;startSize=5;endFill=0;" parent="4BgEIeD1f_NGdpKdZZ3Z-1" edge="1">
          <mxGeometry width="50" height="50" relative="1" as="geometry">
            <mxPoint x="500" y="379.71000000000004" as="sourcePoint" />
            <mxPoint x="580" y="379.71000000000004" as="targetPoint" />
          </mxGeometry>
        </mxCell>
        <mxCell id="EiviXY2oGGu-MI2dENeP-7" value="" style="endArrow=oval;html=1;rounded=0;fontSize=20;targetPerimeterSpacing=0;strokeWidth=2;startArrow=oval;startFill=0;endSize=5;startSize=5;jumpStyle=none;jumpSize=6;dashed=1;dashPattern=1 1;endFill=1;" parent="4BgEIeD1f_NGdpKdZZ3Z-1" edge="1">
          <mxGeometry width="50" height="50" relative="1" as="geometry">
            <mxPoint x="420" y="380" as="sourcePoint" />
            <mxPoint x="420" y="340" as="targetPoint" />
          </mxGeometry>
        </mxCell>
        <mxCell id="EiviXY2oGGu-MI2dENeP-8" value="" style="endArrow=oval;html=1;rounded=0;fontSize=20;targetPerimeterSpacing=0;strokeWidth=2;startArrow=oval;startFill=0;endSize=5;startSize=5;jumpStyle=none;jumpSize=6;dashed=1;dashPattern=1 1;endFill=1;" parent="4BgEIeD1f_NGdpKdZZ3Z-1" edge="1">
          <mxGeometry width="50" height="50" relative="1" as="geometry">
            <mxPoint x="580" y="380" as="sourcePoint" />
            <mxPoint x="580" y="460" as="targetPoint" />
          </mxGeometry>
        </mxCell>
        <mxCell id="EiviXY2oGGu-MI2dENeP-9" value="" style="endArrow=oval;html=1;rounded=0;fontSize=20;targetPerimeterSpacing=0;strokeWidth=2;startArrow=none;startFill=0;endSize=5;startSize=5;endFill=0;" parent="4BgEIeD1f_NGdpKdZZ3Z-1" edge="1">
          <mxGeometry width="50" height="50" relative="1" as="geometry">
            <mxPoint x="180" y="220" as="sourcePoint" />
            <mxPoint x="220" y="220" as="targetPoint" />
          </mxGeometry>
        </mxCell>
        <mxCell id="EiviXY2oGGu-MI2dENeP-10" value="" style="endArrow=oval;html=1;rounded=0;fontSize=20;targetPerimeterSpacing=0;strokeWidth=2;startArrow=oval;startFill=0;endSize=5;startSize=5;jumpStyle=none;jumpSize=6;dashed=1;dashPattern=1 1;endFill=1;" parent="4BgEIeD1f_NGdpKdZZ3Z-1" edge="1">
          <mxGeometry width="50" height="50" relative="1" as="geometry">
            <mxPoint x="220" y="220" as="sourcePoint" />
            <mxPoint x="220" y="140" as="targetPoint" />
          </mxGeometry>
        </mxCell>
        <mxCell id="EiviXY2oGGu-MI2dENeP-11" value="" style="endArrow=oval;html=1;rounded=0;fontSize=20;targetPerimeterSpacing=0;strokeWidth=2;startArrow=oval;startFill=1;endSize=5;startSize=5;endFill=0;" parent="4BgEIeD1f_NGdpKdZZ3Z-1" edge="1">
          <mxGeometry width="50" height="50" relative="1" as="geometry">
            <mxPoint x="220" y="140" as="sourcePoint" />
            <mxPoint x="260" y="140" as="targetPoint" />
          </mxGeometry>
        </mxCell>
        <mxCell id="EiviXY2oGGu-MI2dENeP-12" value="" style="endArrow=oval;html=1;rounded=0;fontSize=20;targetPerimeterSpacing=0;strokeWidth=2;startArrow=oval;startFill=0;endSize=5;startSize=5;jumpStyle=none;jumpSize=6;dashed=1;dashPattern=1 1;endFill=1;" parent="4BgEIeD1f_NGdpKdZZ3Z-1" edge="1">
          <mxGeometry width="50" height="50" relative="1" as="geometry">
            <mxPoint x="420" y="140" as="sourcePoint" />
            <mxPoint x="420" y="180" as="targetPoint" />
          </mxGeometry>
        </mxCell>
        <mxCell id="EiviXY2oGGu-MI2dENeP-13" value="" style="endArrow=none;html=1;rounded=0;fontSize=20;targetPerimeterSpacing=0;strokeWidth=2;startArrow=oval;startFill=1;endSize=5;startSize=5;endFill=0;" parent="4BgEIeD1f_NGdpKdZZ3Z-1" edge="1">
          <mxGeometry width="50" height="50" relative="1" as="geometry">
            <mxPoint x="580" y="220.28999999999996" as="sourcePoint" />
            <mxPoint x="620" y="220.28999999999996" as="targetPoint" />
          </mxGeometry>
        </mxCell>
        <mxCell id="EiviXY2oGGu-MI2dENeP-14" value="Resource 1" style="text;html=1;strokeColor=none;fillColor=none;align=center;verticalAlign=bottom;whiteSpace=wrap;rounded=0;glass=0;sketch=0;fillStyle=auto;sketchStyle=rough;fontFamily=Verdana;fontSize=20;horizontal=0;container=0;" parent="4BgEIeD1f_NGdpKdZZ3Z-1" vertex="1">
          <mxGeometry x="60" y="60" width="40" height="200" as="geometry" />
        </mxCell>
        <mxCell id="EiviXY2oGGu-MI2dENeP-15" value="" style="endArrow=oval;html=1;rounded=0;fontSize=20;targetPerimeterSpacing=0;strokeWidth=2;startArrow=oval;startFill=1;endSize=5;startSize=5;endFill=0;" parent="4BgEIeD1f_NGdpKdZZ3Z-1" edge="1">
          <mxGeometry width="50" height="50" relative="1" as="geometry">
            <mxPoint x="420" y="180" as="sourcePoint" />
            <mxPoint x="500" y="180" as="targetPoint" />
          </mxGeometry>
        </mxCell>
        <mxCell id="EiviXY2oGGu-MI2dENeP-16" value="" style="endArrow=oval;html=1;rounded=0;fontSize=20;targetPerimeterSpacing=0;strokeWidth=2;startArrow=oval;startFill=1;endSize=5;startSize=5;endFill=0;" parent="4BgEIeD1f_NGdpKdZZ3Z-1" edge="1">
          <mxGeometry width="50" height="50" relative="1" as="geometry">
            <mxPoint x="500" y="139.71000000000004" as="sourcePoint" />
            <mxPoint x="580" y="139.71000000000004" as="targetPoint" />
          </mxGeometry>
        </mxCell>
        <mxCell id="EiviXY2oGGu-MI2dENeP-17" value="" style="endArrow=oval;html=1;rounded=0;fontSize=20;targetPerimeterSpacing=0;strokeWidth=2;startArrow=oval;startFill=0;endSize=5;startSize=5;jumpStyle=none;jumpSize=6;dashed=1;dashPattern=1 1;endFill=1;" parent="4BgEIeD1f_NGdpKdZZ3Z-1" edge="1">
          <mxGeometry width="50" height="50" relative="1" as="geometry">
            <mxPoint x="500" y="180" as="sourcePoint" />
            <mxPoint x="500" y="140" as="targetPoint" />
          </mxGeometry>
        </mxCell>
        <mxCell id="EiviXY2oGGu-MI2dENeP-18" value="" style="endArrow=oval;html=1;rounded=0;fontSize=20;targetPerimeterSpacing=0;strokeWidth=2;startArrow=oval;startFill=0;endSize=5;startSize=5;jumpStyle=none;jumpSize=6;dashed=1;dashPattern=1 1;endFill=1;" parent="4BgEIeD1f_NGdpKdZZ3Z-1" edge="1">
          <mxGeometry width="50" height="50" relative="1" as="geometry">
            <mxPoint x="580" y="140" as="sourcePoint" />
            <mxPoint x="580" y="220" as="targetPoint" />
          </mxGeometry>
        </mxCell>
        <mxCell id="EiviXY2oGGu-MI2dENeP-19" value="" style="endArrow=oval;html=1;rounded=0;fontSize=20;targetPerimeterSpacing=0;strokeWidth=2;startArrow=oval;startFill=0;endSize=5;startSize=5;jumpStyle=none;jumpSize=6;dashed=1;dashPattern=1 1;endFill=1;" parent="4BgEIeD1f_NGdpKdZZ3Z-1" edge="1">
          <mxGeometry width="50" height="50" relative="1" as="geometry">
            <mxPoint x="260" y="140" as="sourcePoint" />
            <mxPoint x="260" y="100" as="targetPoint" />
          </mxGeometry>
        </mxCell>
        <mxCell id="EiviXY2oGGu-MI2dENeP-20" value="" style="endArrow=oval;html=1;rounded=0;fontSize=20;targetPerimeterSpacing=0;strokeWidth=2;startArrow=oval;startFill=1;endSize=5;startSize=5;endFill=0;" parent="4BgEIeD1f_NGdpKdZZ3Z-1" edge="1">
          <mxGeometry width="50" height="50" relative="1" as="geometry">
            <mxPoint x="260" y="100" as="sourcePoint" />
            <mxPoint x="340" y="100" as="targetPoint" />
          </mxGeometry>
        </mxCell>
        <mxCell id="EiviXY2oGGu-MI2dENeP-21" value="" style="endArrow=oval;html=1;rounded=0;fontSize=20;targetPerimeterSpacing=0;strokeWidth=2;startArrow=oval;startFill=0;endSize=5;startSize=5;jumpStyle=none;jumpSize=6;dashed=1;dashPattern=1 1;endFill=1;" parent="4BgEIeD1f_NGdpKdZZ3Z-1" edge="1">
          <mxGeometry width="50" height="50" relative="1" as="geometry">
            <mxPoint x="340" y="100" as="sourcePoint" />
            <mxPoint x="340" y="140" as="targetPoint" />
          </mxGeometry>
        </mxCell>
        <mxCell id="EiviXY2oGGu-MI2dENeP-22" value="" style="endArrow=oval;html=1;rounded=0;fontSize=20;targetPerimeterSpacing=0;strokeWidth=2;startArrow=oval;startFill=1;endSize=5;startSize=5;endFill=0;" parent="4BgEIeD1f_NGdpKdZZ3Z-1" edge="1">
          <mxGeometry width="50" height="50" relative="1" as="geometry">
            <mxPoint x="340" y="140" as="sourcePoint" />
            <mxPoint x="420" y="140" as="targetPoint" />
          </mxGeometry>
        </mxCell>
        <mxCell id="EiviXY2oGGu-MI2dENeP-35" value="" style="endArrow=oval;html=1;rounded=0;fontSize=20;targetPerimeterSpacing=0;strokeWidth=2;startArrow=oval;startFill=0;endSize=5;startSize=5;jumpStyle=none;jumpSize=6;dashed=1;dashPattern=1 1;endFill=1;" parent="4BgEIeD1f_NGdpKdZZ3Z-1" edge="1">
          <mxGeometry width="50" height="50" relative="1" as="geometry">
            <mxPoint x="220" y="220" as="sourcePoint" />
            <mxPoint x="580" y="220" as="targetPoint" />
          </mxGeometry>
        </mxCell>
        <mxCell id="EiviXY2oGGu-MI2dENeP-50" value="" style="shape=flexArrow;endArrow=classic;html=1;rounded=0;fillColor=#FF6666;strokeWidth=2;endWidth=16.88378989620621;endSize=11.969832402234637;targetPerimeterSpacing=0;width=16.890080428954423;startArrow=none;startFill=0;gradientColor=#66FF66;" parent="4BgEIeD1f_NGdpKdZZ3Z-1" edge="1">
          <mxGeometry width="50" height="50" relative="1" as="geometry">
            <mxPoint x="460" y="190" as="sourcePoint" />
            <mxPoint x="460" y="330" as="targetPoint" />
          </mxGeometry>
        </mxCell>
        <mxCell id="EiviXY2oGGu-MI2dENeP-51" value="Migration" style="rounded=0;whiteSpace=wrap;html=1;fontSize=20;fontFamily=Verdana;strokeWidth=2;verticalAlign=top;" parent="4BgEIeD1f_NGdpKdZZ3Z-1" vertex="1">
          <mxGeometry x="490" y="260" width="120" height="40" as="geometry" />
        </mxCell>
        <mxCell id="EiviXY2oGGu-MI2dENeP-52" value="Addition" style="rounded=0;whiteSpace=wrap;html=1;fontSize=20;fontFamily=Verdana;strokeWidth=2;verticalAlign=top;" parent="4BgEIeD1f_NGdpKdZZ3Z-1" vertex="1">
          <mxGeometry x="240" y="260" width="120" height="40" as="geometry" />
        </mxCell>
        <mxCell id="EiviXY2oGGu-MI2dENeP-53" value="" style="shape=flexArrow;endArrow=classic;html=1;rounded=0;fillColor=#66FF66;strokeWidth=2;endWidth=16.88378989620621;endSize=11.969832402234637;targetPerimeterSpacing=0;width=16.890080428954423;startArrow=none;startFill=0;" parent="4BgEIeD1f_NGdpKdZZ3Z-1" edge="1">
          <mxGeometry width="50" height="50" relative="1" as="geometry">
            <mxPoint x="300" y="250" as="sourcePoint" />
            <mxPoint x="300" y="150" as="targetPoint" />
          </mxGeometry>
        </mxCell>
        <mxCell id="nKKgB6BeglJV75RHrMyw-1" value="" style="endArrow=block;html=1;rounded=0;fontSize=20;startSize=5;endSize=14;targetPerimeterSpacing=0;strokeWidth=2;jumpStyle=none;jumpSize=6;fontStyle=0;fontFamily=Verdana;endFill=1;labelBackgroundColor=none;spacingLeft=0;spacing=2;labelPosition=center;verticalLabelPosition=middle;align=center;verticalAlign=middle;" parent="4BgEIeD1f_NGdpKdZZ3Z-1" edge="1">
          <mxGeometry x="0.8179" y="-16" width="50" height="50" relative="1" as="geometry">
            <mxPoint x="160" y="510" as="sourcePoint" />
            <mxPoint x="160" y="300" as="targetPoint" />
            <mxPoint as="offset" />
          </mxGeometry>
        </mxCell>
        <mxCell id="nKKgB6BeglJV75RHrMyw-2" value="" style="endArrow=block;html=1;rounded=0;fontSize=20;startSize=5;endSize=14;targetPerimeterSpacing=0;strokeWidth=2;jumpStyle=none;jumpSize=6;fontStyle=0;fontFamily=Verdana;endFill=1;labelBackgroundColor=none;spacingLeft=0;spacing=2;labelPosition=center;verticalLabelPosition=middle;align=center;verticalAlign=middle;" parent="4BgEIeD1f_NGdpKdZZ3Z-1" edge="1">
          <mxGeometry x="0.8179" y="-16" width="50" height="50" relative="1" as="geometry">
            <mxPoint x="160" y="270" as="sourcePoint" />
            <mxPoint x="160" y="60" as="targetPoint" />
            <mxPoint as="offset" />
          </mxGeometry>
        </mxCell>
        <mxCell id="nKKgB6BeglJV75RHrMyw-3" value="Capacity" style="text;html=1;strokeColor=none;fillColor=none;align=left;verticalAlign=top;whiteSpace=wrap;rounded=0;glass=0;sketch=0;fillStyle=auto;sketchStyle=rough;fontFamily=Verdana;fontSize=20;container=0;horizontal=0;" parent="4BgEIeD1f_NGdpKdZZ3Z-1" vertex="1">
          <mxGeometry x="120" y="380" width="40" height="120" as="geometry" />
        </mxCell>
        <mxCell id="nKKgB6BeglJV75RHrMyw-4" value="Capacity" style="text;html=1;strokeColor=none;fillColor=none;align=left;verticalAlign=top;whiteSpace=wrap;rounded=0;glass=0;sketch=0;fillStyle=auto;sketchStyle=rough;fontFamily=Verdana;fontSize=20;container=0;horizontal=0;" parent="4BgEIeD1f_NGdpKdZZ3Z-1" vertex="1">
          <mxGeometry x="120" y="140" width="40" height="120" as="geometry" />
        </mxCell>
        <mxCell id="nKKgB6BeglJV75RHrMyw-6" value="" style="ellipse;whiteSpace=wrap;html=1;strokeWidth=2;" parent="4BgEIeD1f_NGdpKdZZ3Z-1" vertex="1">
          <mxGeometry x="150" y="270" width="20" height="20" as="geometry" />
        </mxCell>
        <mxCell id="nKKgB6BeglJV75RHrMyw-7" value="" style="ellipse;whiteSpace=wrap;html=1;strokeWidth=2;" parent="4BgEIeD1f_NGdpKdZZ3Z-1" vertex="1">
          <mxGeometry x="150" y="510" width="20" height="20" as="geometry" />
        </mxCell>
        <mxCell id="21uBVtK40kJrdXI3fAvM-11" value="" style="rounded=0;whiteSpace=wrap;html=1;fontSize=20;strokeWidth=1;fillColor=#66FF66;strokeColor=none;gradientColor=none;gradientDirection=north;sketch=1;sketchStyle=rough;fillStyle=dashed;perimeterSpacing=0;labelBackgroundColor=none;disableMultiStroke=0;disableMultiStrokeFill=0;dashOffset=10;dashGap=3;hachureGap=5;fillWeight=1;hachureAngle=-45;curveFitting=-1;simplification=1;zigzagOffset=-10;container=0;" parent="4BgEIeD1f_NGdpKdZZ3Z-1" vertex="1">
          <mxGeometry x="420" y="340" width="80" height="40" as="geometry" />
        </mxCell>
        <mxCell id="SQKsgF75DjMRMY_mW536-0" value="" style="endArrow=oval;html=1;rounded=0;fontSize=20;targetPerimeterSpacing=0;strokeWidth=2;startArrow=oval;startFill=0;endSize=5;startSize=5;jumpStyle=none;jumpSize=6;dashed=1;dashPattern=1 1;endFill=1;" parent="4BgEIeD1f_NGdpKdZZ3Z-1" edge="1">
          <mxGeometry width="50" height="50" relative="1" as="geometry">
            <mxPoint x="220" y="460" as="sourcePoint" />
            <mxPoint x="580" y="460" as="targetPoint" />
          </mxGeometry>
        </mxCell>
      </root>
    </mxGraphModel>
  </diagram>
  <diagram id="tW6nLLVI6qoidcymsxwy" name="JobShop">
    <mxGraphModel dx="2058" dy="1188" grid="1" gridSize="10" guides="1" tooltips="1" connect="1" arrows="1" fold="1" page="1" pageScale="1" pageWidth="827" pageHeight="1169" math="0" shadow="0">
      <root>
        <mxCell id="0" />
        <mxCell id="1" parent="0" />
        <mxCell id="Uyx92qPvGjI-bHAdSed4-1" value="" style="group" vertex="1" connectable="0" parent="1">
          <mxGeometry x="40" y="40" width="660" height="400" as="geometry" />
        </mxCell>
        <mxCell id="Uyx92qPvGjI-bHAdSed4-2" value="" style="rounded=0;whiteSpace=wrap;html=1;glass=0;sketch=0;fillStyle=auto;sketchStyle=rough;fontSize=20;strokeColor=#000000;strokeWidth=1;fillColor=#FFFFFF;gradientColor=none;gradientDirection=north;" vertex="1" parent="Uyx92qPvGjI-bHAdSed4-1">
          <mxGeometry width="660" height="400" as="geometry" />
        </mxCell>
        <mxCell id="Uyx92qPvGjI-bHAdSed4-3" value="" style="endArrow=none;html=1;rounded=0;fontSize=20;startSize=5;endSize=5;targetPerimeterSpacing=0;strokeWidth=1;jumpStyle=none;jumpSize=6;" edge="1" parent="Uyx92qPvGjI-bHAdSed4-1">
          <mxGeometry width="50" height="50" relative="1" as="geometry">
            <mxPoint x="80" y="199.9999999999999" as="sourcePoint" />
            <mxPoint x="640" y="199.9999999999999" as="targetPoint" />
          </mxGeometry>
        </mxCell>
        <mxCell id="Uyx92qPvGjI-bHAdSed4-4" value="" style="group" vertex="1" connectable="0" parent="Uyx92qPvGjI-bHAdSed4-1">
          <mxGeometry x="80" y="360" width="560.0000000000002" height="40" as="geometry" />
        </mxCell>
        <mxCell id="Uyx92qPvGjI-bHAdSed4-5" value="" style="endArrow=block;html=1;rounded=0;fontSize=20;startSize=5;endSize=14;targetPerimeterSpacing=0;strokeWidth=2;jumpStyle=none;jumpSize=6;fontStyle=0;fontFamily=Verdana;endFill=1;labelBackgroundColor=none;spacingLeft=0;spacing=2;labelPosition=center;verticalLabelPosition=middle;align=center;verticalAlign=middle;" edge="1" parent="Uyx92qPvGjI-bHAdSed4-4">
          <mxGeometry x="0.8179" y="-16" width="50" height="50" relative="1" as="geometry">
            <mxPoint as="sourcePoint" />
            <mxPoint x="560.0000000000002" as="targetPoint" />
            <mxPoint as="offset" />
          </mxGeometry>
        </mxCell>
        <mxCell id="Uyx92qPvGjI-bHAdSed4-6" value="Time" style="text;html=1;strokeColor=none;fillColor=none;align=left;verticalAlign=top;whiteSpace=wrap;rounded=0;glass=0;sketch=0;fillStyle=auto;sketchStyle=rough;fontFamily=Verdana;fontSize=20;" vertex="1" parent="Uyx92qPvGjI-bHAdSed4-4">
          <mxGeometry width="80" height="40" as="geometry" />
        </mxCell>
        <mxCell id="Uyx92qPvGjI-bHAdSed4-7" value="" style="group" vertex="1" connectable="0" parent="Uyx92qPvGjI-bHAdSed4-1">
          <mxGeometry x="20" y="20" width="620" height="160" as="geometry" />
        </mxCell>
        <mxCell id="Uyx92qPvGjI-bHAdSed4-8" value="" style="group" vertex="1" connectable="0" parent="Uyx92qPvGjI-bHAdSed4-7">
          <mxGeometry width="620" height="160" as="geometry" />
        </mxCell>
        <mxCell id="Uyx92qPvGjI-bHAdSed4-9" value="" style="group" vertex="1" connectable="0" parent="Uyx92qPvGjI-bHAdSed4-8">
          <mxGeometry width="620" height="160" as="geometry" />
        </mxCell>
        <mxCell id="Uyx92qPvGjI-bHAdSed4-10" value="" style="group" vertex="1" connectable="0" parent="Uyx92qPvGjI-bHAdSed4-9">
          <mxGeometry width="620" height="160" as="geometry" />
        </mxCell>
        <mxCell id="Uyx92qPvGjI-bHAdSed4-11" value="" style="rounded=0;whiteSpace=wrap;html=1;glass=0;sketch=0;fillStyle=auto;sketchStyle=rough;fontSize=20;strokeColor=none;strokeWidth=1;fillColor=#EDEDED;gradientColor=none;gradientDirection=north;" vertex="1" parent="Uyx92qPvGjI-bHAdSed4-10">
          <mxGeometry x="60" width="560" height="160" as="geometry" />
        </mxCell>
        <mxCell id="Uyx92qPvGjI-bHAdSed4-12" value="" style="group" vertex="1" connectable="0" parent="Uyx92qPvGjI-bHAdSed4-9">
          <mxGeometry x="60" y="59.33" width="560" height="40.00000000000004" as="geometry" />
        </mxCell>
        <mxCell id="Uyx92qPvGjI-bHAdSed4-13" value="" style="endArrow=none;dashed=1;html=1;strokeWidth=1;rounded=0;fontSize=20;startSize=5;endSize=5;targetPerimeterSpacing=0;jumpStyle=none;jumpSize=6;strokeColor=#808080;" edge="1" parent="Uyx92qPvGjI-bHAdSed4-12">
          <mxGeometry width="50" height="50" relative="1" as="geometry">
            <mxPoint as="sourcePoint" />
            <mxPoint x="560" as="targetPoint" />
          </mxGeometry>
        </mxCell>
        <mxCell id="Uyx92qPvGjI-bHAdSed4-14" value="" style="endArrow=none;dashed=1;html=1;strokeWidth=1;rounded=0;fontSize=20;startSize=5;endSize=5;targetPerimeterSpacing=0;jumpStyle=none;jumpSize=6;strokeColor=#808080;" edge="1" parent="Uyx92qPvGjI-bHAdSed4-12">
          <mxGeometry width="50" height="50" relative="1" as="geometry">
            <mxPoint y="40.00000000000004" as="sourcePoint" />
            <mxPoint x="560" y="40.00000000000004" as="targetPoint" />
          </mxGeometry>
        </mxCell>
        <mxCell id="Uyx92qPvGjI-bHAdSed4-15" value="" style="group" vertex="1" connectable="0" parent="Uyx92qPvGjI-bHAdSed4-7">
          <mxGeometry x="100" y="60" width="480" height="40" as="geometry" />
        </mxCell>
        <mxCell id="Uyx92qPvGjI-bHAdSed4-16" value="&lt;font style=&quot;font-size: 20px&quot;&gt;1&lt;/font&gt;" style="rounded=0;whiteSpace=wrap;html=1;fontStyle=0;strokeWidth=2;fillColor=#CCE5FF;" vertex="1" parent="Uyx92qPvGjI-bHAdSed4-15">
          <mxGeometry width="160" height="40" as="geometry" />
        </mxCell>
        <mxCell id="Uyx92qPvGjI-bHAdSed4-17" value="&lt;font style=&quot;font-size: 20px&quot;&gt;2&lt;br&gt;&lt;/font&gt;" style="rounded=0;whiteSpace=wrap;html=1;fontStyle=0;strokeWidth=2;fillColor=#CCE5FF;" vertex="1" parent="Uyx92qPvGjI-bHAdSed4-15">
          <mxGeometry x="280" width="100" height="40" as="geometry" />
        </mxCell>
        <mxCell id="Uyx92qPvGjI-bHAdSed4-18" value="&lt;font style=&quot;font-size: 20px&quot;&gt;3&lt;br&gt;&lt;/font&gt;" style="rounded=0;whiteSpace=wrap;html=1;fontStyle=0;strokeWidth=2;fillColor=#CCE5FF;" vertex="1" parent="Uyx92qPvGjI-bHAdSed4-15">
          <mxGeometry x="420" width="60" height="40" as="geometry" />
        </mxCell>
        <mxCell id="Uyx92qPvGjI-bHAdSed4-19" value="" style="group" vertex="1" connectable="0" parent="Uyx92qPvGjI-bHAdSed4-1">
          <mxGeometry x="20" y="220" width="620" height="120.53" as="geometry" />
        </mxCell>
        <mxCell id="Uyx92qPvGjI-bHAdSed4-20" value="" style="group" vertex="1" connectable="0" parent="Uyx92qPvGjI-bHAdSed4-19">
          <mxGeometry width="620" height="120.53" as="geometry" />
        </mxCell>
        <mxCell id="Uyx92qPvGjI-bHAdSed4-21" value="" style="rounded=0;whiteSpace=wrap;html=1;glass=0;sketch=0;fillStyle=auto;sketchStyle=rough;fontSize=20;strokeColor=none;strokeWidth=1;fillColor=#EDEDED;gradientColor=none;gradientDirection=north;" vertex="1" parent="Uyx92qPvGjI-bHAdSed4-20">
          <mxGeometry x="60" width="560" height="120" as="geometry" />
        </mxCell>
        <mxCell id="Uyx92qPvGjI-bHAdSed4-22" value="" style="group" vertex="1" connectable="0" parent="Uyx92qPvGjI-bHAdSed4-19">
          <mxGeometry x="60" y="40.25999999999999" width="560" height="40" as="geometry" />
        </mxCell>
        <mxCell id="Uyx92qPvGjI-bHAdSed4-23" value="" style="group" vertex="1" connectable="0" parent="Uyx92qPvGjI-bHAdSed4-22">
          <mxGeometry x="40" width="480" height="40" as="geometry" />
        </mxCell>
        <mxCell id="Uyx92qPvGjI-bHAdSed4-24" value="" style="rounded=0;whiteSpace=wrap;html=1;fontSize=20;strokeWidth=1;fillColor=#CCCCCC;strokeColor=#B3B3B3;gradientColor=none;gradientDirection=north;sketch=1;sketchStyle=rough;fillStyle=dashed;perimeterSpacing=0;labelBackgroundColor=none;disableMultiStroke=0;disableMultiStrokeFill=0;dashOffset=10;dashGap=3;hachureGap=5;fillWeight=1;hachureAngle=-45;curveFitting=-5.05;simplification=1;zigzagOffset=-10;" vertex="1" parent="Uyx92qPvGjI-bHAdSed4-23">
          <mxGeometry x="280" width="200" height="40" as="geometry" />
        </mxCell>
        <mxCell id="Uyx92qPvGjI-bHAdSed4-25" value="" style="rounded=0;whiteSpace=wrap;html=1;fontSize=20;strokeWidth=1;fillColor=#CCE5FF;strokeColor=#B3B3B3;" vertex="1" parent="Uyx92qPvGjI-bHAdSed4-23">
          <mxGeometry x="420" width="60" height="40" as="geometry" />
        </mxCell>
        <mxCell id="Uyx92qPvGjI-bHAdSed4-26" value="" style="rounded=0;whiteSpace=wrap;html=1;fontSize=20;strokeWidth=1;fillColor=#CCE5FF;strokeColor=#B3B3B3;" vertex="1" parent="Uyx92qPvGjI-bHAdSed4-23">
          <mxGeometry x="280" width="100" height="40" as="geometry" />
        </mxCell>
        <mxCell id="Uyx92qPvGjI-bHAdSed4-27" value="" style="rounded=0;whiteSpace=wrap;html=1;fontSize=20;strokeWidth=1;fillColor=#CCE5FF;strokeColor=#B3B3B3;" vertex="1" parent="Uyx92qPvGjI-bHAdSed4-23">
          <mxGeometry width="160" height="40" as="geometry" />
        </mxCell>
        <mxCell id="Uyx92qPvGjI-bHAdSed4-28" value="" style="group" vertex="1" connectable="0" parent="Uyx92qPvGjI-bHAdSed4-22">
          <mxGeometry width="560" height="40" as="geometry" />
        </mxCell>
        <mxCell id="Uyx92qPvGjI-bHAdSed4-29" value="" style="endArrow=oval;html=1;rounded=0;fontSize=20;targetPerimeterSpacing=0;strokeWidth=2;startArrow=none;startFill=0;endSize=5;startSize=5;endFill=0;" edge="1" parent="Uyx92qPvGjI-bHAdSed4-28">
          <mxGeometry width="50" height="50" relative="1" as="geometry">
            <mxPoint y="40" as="sourcePoint" />
            <mxPoint x="40" y="40" as="targetPoint" />
          </mxGeometry>
        </mxCell>
        <mxCell id="Uyx92qPvGjI-bHAdSed4-30" value="" style="endArrow=oval;html=1;rounded=0;fontSize=20;targetPerimeterSpacing=0;strokeWidth=2;startArrow=oval;startFill=0;endSize=5;startSize=5;jumpStyle=none;jumpSize=6;dashed=1;dashPattern=1 1;endFill=1;" edge="1" parent="Uyx92qPvGjI-bHAdSed4-28">
          <mxGeometry width="50" height="50" relative="1" as="geometry">
            <mxPoint x="40" y="40" as="sourcePoint" />
            <mxPoint x="40" as="targetPoint" />
          </mxGeometry>
        </mxCell>
        <mxCell id="Uyx92qPvGjI-bHAdSed4-31" value="" style="endArrow=oval;html=1;rounded=0;fontSize=20;targetPerimeterSpacing=0;strokeWidth=2;startArrow=oval;startFill=1;endSize=5;startSize=5;endFill=0;" edge="1" parent="Uyx92qPvGjI-bHAdSed4-28">
          <mxGeometry width="50" height="50" relative="1" as="geometry">
            <mxPoint x="40" as="sourcePoint" />
            <mxPoint x="200" as="targetPoint" />
          </mxGeometry>
        </mxCell>
        <mxCell id="Uyx92qPvGjI-bHAdSed4-32" value="" style="endArrow=oval;html=1;rounded=0;fontSize=20;targetPerimeterSpacing=0;strokeWidth=2;startArrow=oval;startFill=0;endSize=5;startSize=5;jumpStyle=none;jumpSize=6;dashed=1;dashPattern=1 1;endFill=1;" edge="1" parent="Uyx92qPvGjI-bHAdSed4-28">
          <mxGeometry width="50" height="50" relative="1" as="geometry">
            <mxPoint x="200" as="sourcePoint" />
            <mxPoint x="200" y="40" as="targetPoint" />
          </mxGeometry>
        </mxCell>
        <mxCell id="Uyx92qPvGjI-bHAdSed4-33" value="" style="endArrow=oval;html=1;rounded=0;fontSize=20;targetPerimeterSpacing=0;strokeWidth=2;startArrow=oval;startFill=1;endSize=5;startSize=5;endFill=0;" edge="1" parent="Uyx92qPvGjI-bHAdSed4-28">
          <mxGeometry width="50" height="50" relative="1" as="geometry">
            <mxPoint x="200" y="40" as="sourcePoint" />
            <mxPoint x="320" y="40" as="targetPoint" />
          </mxGeometry>
        </mxCell>
        <mxCell id="Uyx92qPvGjI-bHAdSed4-34" value="" style="endArrow=oval;html=1;rounded=0;fontSize=20;targetPerimeterSpacing=0;strokeWidth=2;startArrow=oval;startFill=0;endSize=5;startSize=5;jumpStyle=none;jumpSize=6;dashed=1;dashPattern=1 1;endFill=1;" edge="1" parent="Uyx92qPvGjI-bHAdSed4-28">
          <mxGeometry width="50" height="50" relative="1" as="geometry">
            <mxPoint x="320" y="40" as="sourcePoint" />
            <mxPoint x="320" as="targetPoint" />
          </mxGeometry>
        </mxCell>
        <mxCell id="Uyx92qPvGjI-bHAdSed4-35" value="" style="endArrow=oval;html=1;rounded=0;fontSize=20;targetPerimeterSpacing=0;strokeWidth=2;startArrow=oval;startFill=1;endSize=5;startSize=5;endFill=0;" edge="1" parent="Uyx92qPvGjI-bHAdSed4-28">
          <mxGeometry width="50" height="50" relative="1" as="geometry">
            <mxPoint x="320" as="sourcePoint" />
            <mxPoint x="520" as="targetPoint" />
          </mxGeometry>
        </mxCell>
        <mxCell id="Uyx92qPvGjI-bHAdSed4-36" value="" style="endArrow=oval;html=1;rounded=0;fontSize=20;targetPerimeterSpacing=0;strokeWidth=2;startArrow=oval;startFill=0;endSize=5;startSize=5;jumpStyle=none;jumpSize=6;dashed=1;dashPattern=1 1;endFill=1;" edge="1" parent="Uyx92qPvGjI-bHAdSed4-28">
          <mxGeometry width="50" height="50" relative="1" as="geometry">
            <mxPoint x="520" as="sourcePoint" />
            <mxPoint x="520" y="40" as="targetPoint" />
          </mxGeometry>
        </mxCell>
        <mxCell id="Uyx92qPvGjI-bHAdSed4-37" value="" style="endArrow=none;html=1;rounded=0;fontSize=20;targetPerimeterSpacing=0;strokeWidth=2;startArrow=oval;startFill=1;endSize=5;startSize=5;endFill=0;" edge="1" parent="Uyx92qPvGjI-bHAdSed4-28">
          <mxGeometry width="50" height="50" relative="1" as="geometry">
            <mxPoint x="520" y="40" as="sourcePoint" />
            <mxPoint x="560" y="40" as="targetPoint" />
          </mxGeometry>
        </mxCell>
        <mxCell id="Uyx92qPvGjI-bHAdSed4-38" value="" style="group" vertex="1" connectable="0" parent="1">
          <mxGeometry x="40" y="260.53" width="60" height="120" as="geometry" />
        </mxCell>
        <mxCell id="Uyx92qPvGjI-bHAdSed4-39" value="Resource" style="text;html=1;strokeColor=none;fillColor=none;align=center;verticalAlign=bottom;whiteSpace=wrap;rounded=0;glass=0;sketch=0;fillStyle=auto;sketchStyle=rough;fontFamily=Verdana;fontSize=20;horizontal=0;" vertex="1" parent="Uyx92qPvGjI-bHAdSed4-38">
          <mxGeometry width="40" height="120" as="geometry" />
        </mxCell>
        <mxCell id="Uyx92qPvGjI-bHAdSed4-40" value="Capacity" style="text;html=1;strokeColor=none;fillColor=none;align=center;verticalAlign=middle;whiteSpace=wrap;rounded=0;glass=0;sketch=0;fillStyle=auto;sketchStyle=rough;fontFamily=Verdana;fontSize=20;horizontal=0;" vertex="1" parent="Uyx92qPvGjI-bHAdSed4-38">
          <mxGeometry x="40" width="20" height="120" as="geometry" />
        </mxCell>
        <mxCell id="Uyx92qPvGjI-bHAdSed4-41" value="" style="group" vertex="1" connectable="0" parent="1">
          <mxGeometry x="40" y="60" width="60" height="160.53" as="geometry" />
        </mxCell>
        <mxCell id="Uyx92qPvGjI-bHAdSed4-42" value="Scheduled" style="text;html=1;strokeColor=none;fillColor=none;align=center;verticalAlign=bottom;whiteSpace=wrap;rounded=0;glass=0;sketch=0;fillStyle=auto;sketchStyle=rough;fontFamily=Verdana;fontSize=20;horizontal=0;" vertex="1" parent="Uyx92qPvGjI-bHAdSed4-41">
          <mxGeometry width="40" height="160.53" as="geometry" />
        </mxCell>
        <mxCell id="Uyx92qPvGjI-bHAdSed4-43" value="Jobs" style="text;html=1;strokeColor=none;fillColor=none;align=center;verticalAlign=middle;whiteSpace=wrap;rounded=0;glass=0;sketch=0;fillStyle=auto;sketchStyle=rough;fontFamily=Verdana;fontSize=20;horizontal=0;" vertex="1" parent="Uyx92qPvGjI-bHAdSed4-41">
          <mxGeometry x="40" width="20" height="160.53" as="geometry" />
        </mxCell>
      </root>
    </mxGraphModel>
  </diagram>
  <diagram name="RCPSP" id="phE75rbcKKxihhekvz1C">
    <mxGraphModel dx="2058" dy="1188" grid="1" gridSize="10" guides="1" tooltips="1" connect="1" arrows="1" fold="1" page="1" pageScale="1" pageWidth="827" pageHeight="1169" math="0" shadow="0">
      <root>
        <mxCell id="O8rzIdV7IYffApi1OB3k-0" />
        <mxCell id="O8rzIdV7IYffApi1OB3k-1" parent="O8rzIdV7IYffApi1OB3k-0" />
        <mxCell id="e6Lq99G8GztFnrZCQ1px-1" value="" style="rounded=0;whiteSpace=wrap;html=1;glass=0;sketch=0;fillStyle=auto;sketchStyle=rough;fontSize=20;strokeColor=#000000;strokeWidth=1;fillColor=#FFFFFF;gradientColor=none;gradientDirection=north;fontStyle=0;container=0;" parent="O8rzIdV7IYffApi1OB3k-1" vertex="1">
          <mxGeometry x="40" y="40" width="660" height="400" as="geometry" />
        </mxCell>
        <mxCell id="e6Lq99G8GztFnrZCQ1px-0" value="" style="endArrow=none;html=1;rounded=0;fontSize=20;startSize=5;endSize=5;targetPerimeterSpacing=0;strokeWidth=1;jumpStyle=none;jumpSize=6;fontStyle=0" parent="O8rzIdV7IYffApi1OB3k-1" edge="1">
          <mxGeometry width="50" height="50" relative="1" as="geometry">
            <mxPoint x="120" y="240" as="sourcePoint" />
            <mxPoint x="680" y="240" as="targetPoint" />
          </mxGeometry>
        </mxCell>
        <mxCell id="e6Lq99G8GztFnrZCQ1px-24" value="" style="endArrow=block;html=1;rounded=0;fontSize=20;startSize=5;endSize=14;targetPerimeterSpacing=0;strokeWidth=2;jumpStyle=none;jumpSize=6;fontStyle=0;fontFamily=Verdana;endFill=1;labelBackgroundColor=none;spacingLeft=0;spacing=2;labelPosition=center;verticalLabelPosition=middle;align=center;verticalAlign=middle;" parent="O8rzIdV7IYffApi1OB3k-1" edge="1">
          <mxGeometry x="0.8179" y="-16" width="50" height="50" relative="1" as="geometry">
            <mxPoint x="120" y="400" as="sourcePoint" />
            <mxPoint x="680.0000000000002" y="400" as="targetPoint" />
            <mxPoint as="offset" />
          </mxGeometry>
        </mxCell>
        <mxCell id="e6Lq99G8GztFnrZCQ1px-25" value="Time" style="text;html=1;strokeColor=none;fillColor=none;align=left;verticalAlign=top;whiteSpace=wrap;rounded=0;glass=0;sketch=0;fillStyle=auto;sketchStyle=rough;fontFamily=Verdana;fontSize=20;fontStyle=0;container=0;" parent="O8rzIdV7IYffApi1OB3k-1" vertex="1">
          <mxGeometry x="120" y="400" width="80" height="40" as="geometry" />
        </mxCell>
        <mxCell id="e6Lq99G8GztFnrZCQ1px-2" value="" style="rounded=0;whiteSpace=wrap;html=1;glass=0;sketch=0;fillStyle=auto;sketchStyle=rough;fontSize=20;strokeColor=none;strokeWidth=1;fillColor=#EDEDED;gradientColor=none;gradientDirection=north;fontStyle=0;container=0;" parent="O8rzIdV7IYffApi1OB3k-1" vertex="1">
          <mxGeometry x="120" y="60" width="560" height="160" as="geometry" />
        </mxCell>
        <mxCell id="e6Lq99G8GztFnrZCQ1px-26" value="Scheduled" style="text;html=1;strokeColor=none;fillColor=none;align=center;verticalAlign=bottom;whiteSpace=wrap;rounded=0;glass=0;sketch=0;fillStyle=auto;sketchStyle=rough;fontFamily=Verdana;fontSize=20;horizontal=0;fontStyle=0;container=0;" parent="O8rzIdV7IYffApi1OB3k-1" vertex="1">
          <mxGeometry x="40" y="60" width="40" height="160" as="geometry" />
        </mxCell>
        <mxCell id="e6Lq99G8GztFnrZCQ1px-16" value="" style="endArrow=none;dashed=1;html=1;strokeWidth=1;rounded=0;fontSize=20;startSize=5;endSize=5;targetPerimeterSpacing=0;jumpStyle=none;jumpSize=6;strokeColor=#808080;fontStyle=0" parent="O8rzIdV7IYffApi1OB3k-1" edge="1">
          <mxGeometry width="50" height="50" relative="1" as="geometry">
            <mxPoint x="120" y="80" as="sourcePoint" />
            <mxPoint x="680" y="80" as="targetPoint" />
          </mxGeometry>
        </mxCell>
        <mxCell id="e6Lq99G8GztFnrZCQ1px-17" value="" style="endArrow=none;dashed=1;html=1;strokeWidth=1;rounded=0;fontSize=20;startSize=5;endSize=5;targetPerimeterSpacing=0;jumpStyle=none;jumpSize=6;strokeColor=#808080;fontStyle=0" parent="O8rzIdV7IYffApi1OB3k-1" edge="1">
          <mxGeometry width="50" height="50" relative="1" as="geometry">
            <mxPoint x="120" y="119.33" as="sourcePoint" />
            <mxPoint x="680" y="119.33" as="targetPoint" />
          </mxGeometry>
        </mxCell>
        <mxCell id="e6Lq99G8GztFnrZCQ1px-18" value="" style="endArrow=none;dashed=1;html=1;strokeWidth=1;rounded=0;fontSize=20;startSize=5;endSize=5;targetPerimeterSpacing=0;jumpStyle=none;jumpSize=6;strokeColor=#808080;fontStyle=0" parent="O8rzIdV7IYffApi1OB3k-1" edge="1">
          <mxGeometry width="50" height="50" relative="1" as="geometry">
            <mxPoint x="120" y="159.33000000000004" as="sourcePoint" />
            <mxPoint x="680" y="159.33000000000004" as="targetPoint" />
          </mxGeometry>
        </mxCell>
        <mxCell id="e6Lq99G8GztFnrZCQ1px-19" value="" style="endArrow=none;dashed=1;html=1;strokeWidth=1;rounded=0;fontSize=20;startSize=5;endSize=5;targetPerimeterSpacing=0;jumpStyle=none;jumpSize=6;strokeColor=#808080;fontStyle=0" parent="O8rzIdV7IYffApi1OB3k-1" edge="1">
          <mxGeometry width="50" height="50" relative="1" as="geometry">
            <mxPoint x="120" y="199.33000000000004" as="sourcePoint" />
            <mxPoint x="680" y="199.33000000000004" as="targetPoint" />
          </mxGeometry>
        </mxCell>
        <mxCell id="O8rzIdV7IYffApi1OB3k-6" value="&lt;font style=&quot;font-size: 20px&quot;&gt;1&lt;/font&gt;" style="rounded=0;whiteSpace=wrap;html=1;fontStyle=0;strokeWidth=2;fillColor=#CCE5FF;container=0;" parent="O8rzIdV7IYffApi1OB3k-1" vertex="1">
          <mxGeometry x="160" y="160" width="160" height="40" as="geometry" />
        </mxCell>
        <mxCell id="O8rzIdV7IYffApi1OB3k-7" value="&lt;font style=&quot;font-size: 20px&quot;&gt;2&lt;br&gt;&lt;/font&gt;" style="rounded=0;whiteSpace=wrap;html=1;fontStyle=0;strokeWidth=2;fillColor=#FFCCFF;container=0;" parent="O8rzIdV7IYffApi1OB3k-1" vertex="1">
          <mxGeometry x="200" y="120" width="100" height="40" as="geometry" />
        </mxCell>
        <mxCell id="O8rzIdV7IYffApi1OB3k-8" value="&lt;font style=&quot;font-size: 20px&quot;&gt;3&lt;br&gt;&lt;/font&gt;" style="rounded=0;whiteSpace=wrap;html=1;fontStyle=0;strokeWidth=2;fillColor=#CCFFE6;container=0;" parent="O8rzIdV7IYffApi1OB3k-1" vertex="1">
          <mxGeometry x="260" y="80" width="60" height="40" as="geometry" />
        </mxCell>
        <mxCell id="O8rzIdV7IYffApi1OB3k-18" value="&lt;font style=&quot;font-size: 20px&quot;&gt;4&lt;/font&gt;" style="rounded=0;whiteSpace=wrap;html=1;fontStyle=0;strokeWidth=2;fillColor=#CCE5FF;container=0;" parent="O8rzIdV7IYffApi1OB3k-1" vertex="1">
          <mxGeometry x="440" y="160" width="180" height="40" as="geometry" />
        </mxCell>
        <mxCell id="O8rzIdV7IYffApi1OB3k-19" value="&lt;font style=&quot;font-size: 20px&quot;&gt;5&lt;br&gt;&lt;/font&gt;" style="rounded=0;whiteSpace=wrap;html=1;fontStyle=0;strokeWidth=2;fillColor=#FFCCFF;container=0;" parent="O8rzIdV7IYffApi1OB3k-1" vertex="1">
          <mxGeometry x="440" y="120" width="60" height="40" as="geometry" />
        </mxCell>
        <mxCell id="O8rzIdV7IYffApi1OB3k-20" value="&lt;font style=&quot;font-size: 20px&quot;&gt;6&lt;br&gt;&lt;/font&gt;" style="rounded=0;whiteSpace=wrap;html=1;fontStyle=0;strokeWidth=2;fillColor=#CCFFE6;container=0;" parent="O8rzIdV7IYffApi1OB3k-1" vertex="1">
          <mxGeometry x="540" y="120" width="80" height="40" as="geometry" />
        </mxCell>
        <mxCell id="e6Lq99G8GztFnrZCQ1px-3" value="" style="rounded=0;whiteSpace=wrap;html=1;glass=0;sketch=0;fillStyle=auto;sketchStyle=rough;fontSize=20;strokeColor=none;strokeWidth=1;fillColor=#EDEDED;gradientColor=none;gradientDirection=north;fontStyle=0;container=0;" parent="O8rzIdV7IYffApi1OB3k-1" vertex="1">
          <mxGeometry x="120" y="260" width="560" height="120" as="geometry" />
        </mxCell>
        <mxCell id="PBFF6YTEl1shq0zrLU5--1" value="" style="rounded=0;whiteSpace=wrap;html=1;fontSize=20;strokeWidth=1;fillColor=#CCCCCC;strokeColor=#B3B3B3;gradientColor=none;gradientDirection=north;sketch=1;sketchStyle=rough;fillStyle=dashed;perimeterSpacing=0;labelBackgroundColor=none;disableMultiStroke=0;disableMultiStrokeFill=0;dashOffset=10;dashGap=3;hachureGap=5;fillWeight=1;hachureAngle=-45;curveFitting=-5.05;simplification=1;zigzagOffset=-10;fontStyle=0;container=0;" parent="O8rzIdV7IYffApi1OB3k-1" vertex="1">
          <mxGeometry x="440" y="280.53" width="200" height="80" as="geometry" />
        </mxCell>
        <mxCell id="e6Lq99G8GztFnrZCQ1px-27" value="Resource" style="text;html=1;strokeColor=none;fillColor=none;align=center;verticalAlign=bottom;whiteSpace=wrap;rounded=0;glass=0;sketch=0;fillStyle=auto;sketchStyle=rough;fontFamily=Verdana;fontSize=20;horizontal=0;fontStyle=0;container=0;" parent="O8rzIdV7IYffApi1OB3k-1" vertex="1">
          <mxGeometry x="40" y="260.53" width="40" height="120" as="geometry" />
        </mxCell>
        <mxCell id="65SC6LoxbgalHkfs6Sur-0" value="Capacity" style="text;html=1;strokeColor=none;fillColor=none;align=center;verticalAlign=middle;whiteSpace=wrap;rounded=0;glass=0;sketch=0;fillStyle=auto;sketchStyle=rough;fontFamily=Verdana;fontSize=20;horizontal=0;fontStyle=0;container=0;" parent="O8rzIdV7IYffApi1OB3k-1" vertex="1">
          <mxGeometry x="80" y="260.53" width="20" height="120" as="geometry" />
        </mxCell>
        <mxCell id="65SC6LoxbgalHkfs6Sur-1" value="Jobs" style="text;html=1;strokeColor=none;fillColor=none;align=center;verticalAlign=middle;whiteSpace=wrap;rounded=0;glass=0;sketch=0;fillStyle=auto;sketchStyle=rough;fontFamily=Verdana;fontSize=20;horizontal=0;fontStyle=0;container=0;" parent="O8rzIdV7IYffApi1OB3k-1" vertex="1">
          <mxGeometry x="80" y="60" width="20" height="160" as="geometry" />
        </mxCell>
        <mxCell id="IYrGpGjkeiGZ2oALErQY-3" value="" style="rounded=0;whiteSpace=wrap;html=1;fontSize=20;strokeWidth=1;fillColor=#CCCCCC;strokeColor=#B3B3B3;gradientColor=none;gradientDirection=north;sketch=1;sketchStyle=rough;fillStyle=dashed;perimeterSpacing=0;labelBackgroundColor=none;disableMultiStroke=0;disableMultiStrokeFill=0;dashOffset=10;dashGap=3;hachureGap=5;fillWeight=1;hachureAngle=-45;curveFitting=-5.05;simplification=1;zigzagOffset=-10;fontStyle=0;container=0;" parent="O8rzIdV7IYffApi1OB3k-1" vertex="1">
          <mxGeometry x="160" y="280.53" width="160" height="80" as="geometry" />
        </mxCell>
        <mxCell id="O8rzIdV7IYffApi1OB3k-5" value="" style="rounded=0;whiteSpace=wrap;html=1;fontSize=20;strokeWidth=1;fillColor=#CCE5FF;strokeColor=#999999;fontStyle=0;container=0;" parent="O8rzIdV7IYffApi1OB3k-1" vertex="1">
          <mxGeometry x="160" y="320.53" width="160" height="40" as="geometry" />
        </mxCell>
        <mxCell id="O8rzIdV7IYffApi1OB3k-21" value="" style="rounded=0;whiteSpace=wrap;html=1;fontSize=20;strokeWidth=1;fillColor=#FFCCFF;strokeColor=#999999;fontStyle=0;container=0;" parent="O8rzIdV7IYffApi1OB3k-1" vertex="1">
          <mxGeometry x="200" y="300.53" width="100" height="20" as="geometry" />
        </mxCell>
        <mxCell id="O8rzIdV7IYffApi1OB3k-22" value="" style="rounded=0;whiteSpace=wrap;html=1;fontSize=20;strokeWidth=1;fillColor=#CCFFE6;strokeColor=#999999;fontStyle=0;container=0;" parent="O8rzIdV7IYffApi1OB3k-1" vertex="1">
          <mxGeometry x="260" y="280.53" width="40" height="20" as="geometry" />
        </mxCell>
        <mxCell id="O8rzIdV7IYffApi1OB3k-23" value="" style="rounded=0;whiteSpace=wrap;html=1;fontSize=20;strokeWidth=1;fillColor=#CCFFE6;strokeColor=#999999;fontStyle=0;container=0;" parent="O8rzIdV7IYffApi1OB3k-1" vertex="1">
          <mxGeometry x="300" y="300.53" width="20" height="20" as="geometry" />
        </mxCell>
        <mxCell id="e6Lq99G8GztFnrZCQ1px-28" value="" style="rounded=0;whiteSpace=wrap;html=1;fontSize=20;strokeWidth=1;fillColor=#FFCCFF;strokeColor=#999999;fontStyle=0;container=0;" parent="O8rzIdV7IYffApi1OB3k-1" vertex="1">
          <mxGeometry x="440" y="300" width="60" height="40" as="geometry" />
        </mxCell>
        <mxCell id="e6Lq99G8GztFnrZCQ1px-29" value="" style="rounded=0;whiteSpace=wrap;html=1;fontSize=20;strokeWidth=1;fillColor=#CCE5FF;strokeColor=#999999;fontStyle=0;container=0;" parent="O8rzIdV7IYffApi1OB3k-1" vertex="1">
          <mxGeometry x="440" y="340" width="180" height="20.53" as="geometry" />
        </mxCell>
        <mxCell id="e6Lq99G8GztFnrZCQ1px-30" value="" style="rounded=0;whiteSpace=wrap;html=1;fontSize=20;strokeWidth=1;fillColor=#CCFFE6;strokeColor=#999999;fontStyle=0;container=0;" parent="O8rzIdV7IYffApi1OB3k-1" vertex="1">
          <mxGeometry x="540" y="309.47" width="80" height="30.53" as="geometry" />
        </mxCell>
        <mxCell id="e6Lq99G8GztFnrZCQ1px-22" value="" style="endArrow=none;dashed=1;html=1;strokeWidth=1;rounded=0;fontSize=20;startSize=5;endSize=5;targetPerimeterSpacing=0;jumpStyle=none;jumpSize=6;strokeColor=#808080;fontStyle=0" parent="O8rzIdV7IYffApi1OB3k-1" edge="1">
          <mxGeometry width="50" height="50" relative="1" as="geometry">
            <mxPoint x="121" y="279.99" as="sourcePoint" />
            <mxPoint x="681" y="279.99" as="targetPoint" />
          </mxGeometry>
        </mxCell>
        <mxCell id="O8rzIdV7IYffApi1OB3k-9" value="" style="endArrow=oval;html=1;rounded=0;fontSize=20;targetPerimeterSpacing=0;strokeWidth=2;startArrow=none;startFill=0;endSize=5;startSize=5;endFill=0;fontStyle=0" parent="O8rzIdV7IYffApi1OB3k-1" edge="1">
          <mxGeometry width="50" height="50" relative="1" as="geometry">
            <mxPoint x="120" y="360.53" as="sourcePoint" />
            <mxPoint x="160" y="360.53" as="targetPoint" />
          </mxGeometry>
        </mxCell>
        <mxCell id="O8rzIdV7IYffApi1OB3k-13" value="" style="endArrow=oval;html=1;rounded=0;fontSize=20;targetPerimeterSpacing=0;strokeWidth=2;startArrow=oval;startFill=1;endSize=5;startSize=5;endFill=0;fontStyle=0" parent="O8rzIdV7IYffApi1OB3k-1" edge="1">
          <mxGeometry width="50" height="50" relative="1" as="geometry">
            <mxPoint x="320" y="360.53" as="sourcePoint" />
            <mxPoint x="440" y="360.53" as="targetPoint" />
          </mxGeometry>
        </mxCell>
        <mxCell id="O8rzIdV7IYffApi1OB3k-17" value="" style="endArrow=none;html=1;rounded=0;fontSize=20;targetPerimeterSpacing=0;strokeWidth=2;startArrow=oval;startFill=1;endSize=5;startSize=5;endFill=0;fontStyle=0" parent="O8rzIdV7IYffApi1OB3k-1" edge="1">
          <mxGeometry width="50" height="50" relative="1" as="geometry">
            <mxPoint x="640" y="360.53" as="sourcePoint" />
            <mxPoint x="680" y="360.53" as="targetPoint" />
          </mxGeometry>
        </mxCell>
        <mxCell id="O8rzIdV7IYffApi1OB3k-14" value="" style="endArrow=oval;html=1;rounded=0;fontSize=20;targetPerimeterSpacing=0;strokeWidth=2;startArrow=oval;startFill=0;endSize=5;startSize=5;jumpStyle=none;jumpSize=6;dashed=1;dashPattern=1 1;endFill=1;fontStyle=0" parent="O8rzIdV7IYffApi1OB3k-1" edge="1">
          <mxGeometry width="50" height="50" relative="1" as="geometry">
            <mxPoint x="440" y="360.53" as="sourcePoint" />
            <mxPoint x="440" y="280.53" as="targetPoint" />
          </mxGeometry>
        </mxCell>
        <mxCell id="O8rzIdV7IYffApi1OB3k-15" value="" style="endArrow=oval;html=1;rounded=0;fontSize=20;targetPerimeterSpacing=0;strokeWidth=2;startArrow=oval;startFill=1;endSize=5;startSize=5;endFill=0;fontStyle=0" parent="O8rzIdV7IYffApi1OB3k-1" edge="1">
          <mxGeometry width="50" height="50" relative="1" as="geometry">
            <mxPoint x="440" y="280" as="sourcePoint" />
            <mxPoint x="640" y="280" as="targetPoint" />
          </mxGeometry>
        </mxCell>
        <mxCell id="O8rzIdV7IYffApi1OB3k-16" value="" style="endArrow=oval;html=1;rounded=0;fontSize=20;targetPerimeterSpacing=0;strokeWidth=2;startArrow=oval;startFill=0;endSize=5;startSize=5;jumpStyle=none;jumpSize=6;dashed=1;dashPattern=1 1;endFill=1;fontStyle=0" parent="O8rzIdV7IYffApi1OB3k-1" edge="1">
          <mxGeometry width="50" height="50" relative="1" as="geometry">
            <mxPoint x="640" y="280.53" as="sourcePoint" />
            <mxPoint x="640" y="360.53" as="targetPoint" />
          </mxGeometry>
        </mxCell>
        <mxCell id="O8rzIdV7IYffApi1OB3k-10" value="" style="endArrow=oval;html=1;rounded=0;fontSize=20;targetPerimeterSpacing=0;strokeWidth=2;startArrow=oval;startFill=0;endSize=5;startSize=5;jumpStyle=none;jumpSize=6;dashed=1;dashPattern=1 1;endFill=1;fontStyle=0" parent="O8rzIdV7IYffApi1OB3k-1" edge="1">
          <mxGeometry width="50" height="50" relative="1" as="geometry">
            <mxPoint x="160" y="360.53" as="sourcePoint" />
            <mxPoint x="160" y="280.53" as="targetPoint" />
          </mxGeometry>
        </mxCell>
        <mxCell id="O8rzIdV7IYffApi1OB3k-12" value="" style="endArrow=oval;html=1;rounded=0;fontSize=20;targetPerimeterSpacing=0;strokeWidth=2;startArrow=oval;startFill=0;endSize=5;startSize=5;jumpStyle=none;jumpSize=6;dashed=1;dashPattern=1 1;endFill=1;fontStyle=0" parent="O8rzIdV7IYffApi1OB3k-1" edge="1">
          <mxGeometry width="50" height="50" relative="1" as="geometry">
            <mxPoint x="320" y="280.53" as="sourcePoint" />
            <mxPoint x="320" y="360.53" as="targetPoint" />
          </mxGeometry>
        </mxCell>
        <mxCell id="e6Lq99G8GztFnrZCQ1px-31" value="" style="endArrow=oval;html=1;rounded=0;fontSize=20;targetPerimeterSpacing=0;strokeWidth=2;startArrow=oval;startFill=1;endSize=5;startSize=5;endFill=0;fontStyle=0" parent="O8rzIdV7IYffApi1OB3k-1" edge="1">
          <mxGeometry width="50" height="50" relative="1" as="geometry">
            <mxPoint x="160" y="280.27" as="sourcePoint" />
            <mxPoint x="320" y="280.27" as="targetPoint" />
          </mxGeometry>
        </mxCell>
      </root>
    </mxGraphModel>
  </diagram>
</mxfile>
